<mxfile host="app.diagrams.net" modified="2023-06-06T12:20:07.414Z" agent="Mozilla/5.0 (Windows NT 10.0; Win64; x64) AppleWebKit/537.36 (KHTML, like Gecko) Chrome/114.0.0.0 Safari/537.36 Edg/114.0.1823.37" etag="NrjrycKoUZ44SsNbi5YR" version="21.3.7" type="github">
  <diagram name="第 1 页" id="FcBB_o-VcC5ym4NvNEa3">
    <mxGraphModel dx="996" dy="541" grid="1" gridSize="10" guides="1" tooltips="1" connect="1" arrows="1" fold="1" page="1" pageScale="1" pageWidth="827" pageHeight="1169" math="0" shadow="0">
      <root>
        <mxCell id="0" />
        <mxCell id="1" parent="0" />
        <mxCell id="usJmEmrVkTozysZZ8P-m-4" value="Stock RPC" style="shape=ext;double=1;rounded=1;whiteSpace=wrap;html=1;" vertex="1" parent="1">
          <mxGeometry x="340" y="490" width="120" height="80" as="geometry" />
        </mxCell>
        <mxCell id="usJmEmrVkTozysZZ8P-m-6" value="Order RPC" style="shape=ext;double=1;rounded=1;whiteSpace=wrap;html=1;" vertex="1" parent="1">
          <mxGeometry x="340" y="360" width="120" height="80" as="geometry" />
        </mxCell>
        <mxCell id="usJmEmrVkTozysZZ8P-m-7" value="User&amp;nbsp; API" style="shape=ext;double=1;rounded=1;whiteSpace=wrap;html=1;" vertex="1" parent="1">
          <mxGeometry x="343" y="241" width="120" height="80" as="geometry" />
        </mxCell>
        <mxCell id="usJmEmrVkTozysZZ8P-m-9" style="edgeStyle=orthogonalEdgeStyle;rounded=0;orthogonalLoop=1;jettySize=auto;html=1;entryX=0.593;entryY=0.032;entryDx=0;entryDy=0;entryPerimeter=0;" edge="1" parent="1" source="usJmEmrVkTozysZZ8P-m-8" target="usJmEmrVkTozysZZ8P-m-7">
          <mxGeometry relative="1" as="geometry" />
        </mxCell>
        <mxCell id="usJmEmrVkTozysZZ8P-m-8" value="" style="ellipse;whiteSpace=wrap;html=1;strokeWidth=2;fillWeight=2;hachureGap=8;fillColor=#990000;fillStyle=dots;sketch=1;" vertex="1" parent="1">
          <mxGeometry x="354" y="90" width="120" height="60" as="geometry" />
        </mxCell>
      </root>
    </mxGraphModel>
  </diagram>
</mxfile>
